<svg width="10" height="17" viewBox="0 0 10 17" fill="none" xmlns="http://www.w3.org/2000/svg">
<path d="M3.71 8.00099L9.172 2.05399C9.39576 1.82767 9.52125 1.52225 9.52125 1.20399C9.52125 0.885737 9.39576 0.580315 9.172 0.353993C9.06194 0.242335 8.93078 0.15367 8.78614 0.0931501C8.64151 0.0326307 8.48629 0.00146484 8.3295 0.00146484C8.17272 0.00146484 8.0175 0.0326307 7.87286 0.0931501C7.72823 0.15367 7.59707 0.242335 7.487 0.353993L0.827003 7.15399C0.603969 7.38069 0.478973 7.68597 0.478973 8.00399C0.478973 8.32201 0.603969 8.62729 0.827003 8.85399L7.487 15.654C7.59707 15.7657 7.72823 15.8543 7.87286 15.9148C8.0175 15.9754 8.17272 16.0065 8.3295 16.0065C8.48629 16.0065 8.64151 15.9754 8.78614 15.9148C8.93078 15.8543 9.06194 15.7657 9.172 15.654C9.39576 15.4277 9.52125 15.1223 9.52125 14.804C9.52125 14.4857 9.39576 14.1803 9.172 13.954L3.71 8.00099Z" fill="black"/>
</svg>
