<svg width="37" height="36" viewBox="0 0 37 36" fill="none" xmlns="http://www.w3.org/2000/svg">
<path d="M35.89 13.579C35.7671 13.1689 35.5316 12.8015 35.2102 12.5186C34.8888 12.2357 34.4944 12.0488 34.072 11.979L24.363 10.5L20.02 1.313C19.8463 0.922141 19.563 0.590047 19.2044 0.356968C18.8458 0.123889 18.4272 -0.000167847 17.9995 -0.000167847C17.5718 -0.000167847 17.1533 0.123889 16.7946 0.356968C16.436 0.590047 16.1527 0.922141 15.979 1.313L11.638 10.5L1.92901 11.976C1.50633 12.0451 1.11165 12.2318 0.790132 12.5148C0.468619 12.7978 0.233266 13.1655 0.111011 13.576C-0.0199009 13.9921 -0.0360463 14.4359 0.0642786 14.8604C0.164603 15.2849 0.377677 15.6745 0.681011 15.988L7.70701 23.142L6.04901 33.242C5.97715 33.6709 6.02289 34.1113 6.18137 34.5163C6.33985 34.9213 6.60513 35.2758 6.94901 35.542C7.28366 35.7995 7.68624 35.9536 8.10728 35.9854C8.52832 36.0172 8.94949 35.9253 9.31901 35.721L18 30.959L26.684 35.729C27.0539 35.9334 27.4754 36.0253 27.8967 35.9935C28.3181 35.9617 28.721 35.8075 29.056 35.55C29.3999 35.2838 29.6652 34.9293 29.8237 34.5243C29.9821 34.1193 30.0279 33.6789 29.956 33.25L28.298 23.15L35.324 15.996C35.6267 15.6811 35.839 15.2905 35.9386 14.8652C36.0382 14.4399 36.0214 13.9956 35.89 13.579Z" fill="#FFCC00"/>
</svg>
