<svg width="23" height="29" viewBox="0 0 23 29" fill="none" xmlns="http://www.w3.org/2000/svg">
<path d="M11.475 28.542C10.365 28.542 5.09398 22.026 3.80298 19.929C1.87398 16.796 0.709976 14.904 0.709976 11.307C0.709976 8.45195 1.84414 5.71383 3.86297 3.695C5.8818 1.67617 8.61992 0.542007 11.475 0.542007C14.33 0.542007 17.0682 1.67617 19.087 3.695C21.1058 5.71383 22.24 8.45195 22.24 11.307C22.24 14.759 21.09 16.624 19.184 19.714L19.052 19.929C17.722 22.085 12.563 28.542 11.475 28.542ZM11.475 5.92501C10.4103 5.92501 9.36957 6.24071 8.48434 6.83221C7.59911 7.4237 6.90916 8.26441 6.50173 9.24802C6.09431 10.2316 5.9877 11.314 6.19541 12.3582C6.40311 13.4024 6.91579 14.3615 7.66862 15.1144C8.42145 15.8672 9.3806 16.3799 10.4248 16.5876C11.469 16.7953 12.5513 16.6887 13.535 16.2813C14.5186 15.8738 15.3593 15.1839 15.9508 14.2986C16.5423 13.4134 16.858 12.3727 16.858 11.308C16.8564 9.88083 16.2887 8.51257 15.2796 7.50341C14.2704 6.49424 12.9021 5.92659 11.475 5.92501Z" fill="#F52D56"/>
</svg>
